<svg width="35" height="35" viewBox="0 0 35 35" fill="none" xmlns="http://www.w3.org/2000/svg">
<path d="M0.9375 13.125H34.0625C34.5781 13.125 35 13.4941 35 13.9453V31.7188C35 33.5303 33.3203 35 31.25 35H3.75C1.67969 35 0 33.5303 0 31.7188V13.9453C0 13.4941 0.421875 13.125 0.9375 13.125ZM35 10.1172V7.65625C35 5.84473 33.3203 4.375 31.25 4.375H27.5V0.820312C27.5 0.369141 27.0781 0 26.5625 0H23.4375C22.9219 0 22.5 0.369141 22.5 0.820312V4.375H12.5V0.820312C12.5 0.369141 12.0781 0 11.5625 0H8.4375C7.92187 0 7.5 0.369141 7.5 0.820312V4.375H3.75C1.67969 4.375 0 5.84473 0 7.65625V10.1172C0 10.5684 0.421875 10.9375 0.9375 10.9375H34.0625C34.5781 10.9375 35 10.5684 35 10.1172Z" fill="black"/>
</svg>
