<svg width="35" height="36" viewBox="0 0 35 36" fill="none" xmlns="http://www.w3.org/2000/svg">
<path d="M24.4635 5.70326L29.9444 11.8705C30.1753 12.1303 30.1753 12.5542 29.9444 12.814L16.6736 27.7466L11.0347 28.4509C10.2812 28.5466 9.64323 27.8287 9.7283 26.9809L10.3542 20.6359L23.625 5.70326C23.8559 5.44344 24.2326 5.44344 24.4635 5.70326ZM34.3073 4.13752L31.342 0.800934C30.4184 -0.238332 28.9175 -0.238332 27.9878 0.800934L25.8368 3.22133C25.6059 3.48114 25.6059 3.90506 25.8368 4.16487L31.3177 10.3321C31.5486 10.5919 31.9253 10.5919 32.1562 10.3321L34.3073 7.9117C35.2309 6.8656 35.2309 5.17679 34.3073 4.13752ZM23.3333 23.6853V30.6456H3.88889V8.76636H17.8524C18.0469 8.76636 18.2292 8.67747 18.3689 8.52705L20.7995 5.79214C21.2613 5.27251 20.9332 4.3905 20.283 4.3905H2.91667C1.30642 4.3905 0 5.86052 0 7.67239V31.7396C0 33.5515 1.30642 35.0215 2.91667 35.0215H24.3056C25.9158 35.0215 27.2222 33.5515 27.2222 31.7396V20.9504C27.2222 20.2188 26.4384 19.8564 25.9766 20.3692L23.546 23.1041C23.4123 23.2614 23.3333 23.4665 23.3333 23.6853Z" fill="white"/>
</svg>
