<?xml version="1.0" encoding="UTF-8" standalone="no"?>
<!DOCTYPE svg PUBLIC "-//W3C//DTD SVG 1.1//EN" "http://www.w3.org/Graphics/SVG/1.1/DTD/svg11.dtd">
<svg xmlns="http://www.w3.org/2000/svg" version="1.1" viewBox="0.00 0.00 512.00 512.00">
<path fill="#000000" d="
  M 253.82 0.00
  L 258.26 0.00
  Q 271.96 2.49 276.08 14.36
  Q 277.34 17.99 277.31 24.79
  Q 277.26 34.26 277.34 43.84
  Q 277.34 44.36 277.86 44.44
  C 345.15 54.62 397.60 108.92 404.54 176.79
  Q 405.23 183.55 405.29 196.75
  Q 405.41 222.88 405.42 249.00
  Q 405.43 309.40 446.49 351.90
  C 450.06 355.60 455.11 359.71 458.59 363.16
  C 467.61 372.13 471.06 385.56 468.39 397.38
  C 464.51 414.61 449.48 426.70 431.50 426.70
  Q 256.12 426.68 80.75 426.65
  C 49.76 426.64 31.20 392.02 50.35 366.74
  C 54.22 361.62 60.16 357.37 64.89 352.52
  Q 102.33 314.16 106.30 260.99
  Q 106.75 254.93 106.71 241.01
  Q 106.64 218.62 106.71 196.25
  Q 106.75 183.28 107.48 176.28
  C 114.51 108.18 167.69 54.50 234.30 44.43
  A 0.47 0.46 -4.3 0 0 234.70 43.97
  Q 234.66 33.79 234.70 23.75
  Q 234.73 17.48 236.06 13.91
  Q 240.38 2.34 253.82 0.00
  Z"
/>
<path fill="#000000" d="
  M 260.18 512.00
  L 251.69 512.00
  C 214.92 509.37 185.70 484.01 177.68 448.42
  A 0.35 0.35 0.0 0 1 178.02 448.00
  L 333.75 448.00
  Q 334.30 448.00 334.19 448.54
  C 326.55 484.41 296.56 509.29 260.18 512.00
  Z"
/>
</svg>
