<svg width="35" height="35" viewBox="0 0 35 35" fill="none" xmlns="http://www.w3.org/2000/svg">
<path d="M30.8808 19.2135C30.9558 18.6667 30.9933 18.1016 30.9933 17.5C30.9933 16.9167 30.9558 16.3333 30.8621 15.7865L34.6664 12.9062C35.0037 12.651 35.0975 12.1589 34.8913 11.7943L31.2931 5.74219C31.0682 5.34115 30.5997 5.21354 30.1874 5.34115L25.7084 7.09115C24.7714 6.39844 23.7781 5.8151 22.6724 5.3776L21.9977 0.747396C21.9228 0.309896 21.548 0 21.0982 0H13.9018C13.452 0 13.096 0.309896 13.021 0.747396L12.3463 5.3776C11.2406 5.8151 10.2286 6.41667 9.31035 7.09115L4.83133 5.34115C4.41904 5.19531 3.95053 5.34115 3.72564 5.74219L0.146178 11.7943C-0.07871 12.1771 -0.00374769 12.651 0.371065 12.9062L4.17541 15.7865C4.08171 16.3333 4.00675 16.9349 4.00675 17.5C4.00675 18.0651 4.04423 18.6667 4.13793 19.2135L0.333584 22.0938C-0.00374766 22.349 -0.0974506 22.8411 0.108696 23.2057L3.7069 29.2578C3.93178 29.6589 4.4003 29.7865 4.81259 29.6589L9.2916 27.9089C10.2286 28.6016 11.2219 29.1849 12.3276 29.6224L13.0022 34.2526C13.096 34.6901 13.452 35 13.9018 35H21.0982C21.548 35 21.9228 34.6901 21.979 34.2526L22.6537 29.6224C23.7594 29.1849 24.7714 28.6016 25.6897 27.9089L30.1687 29.6589C30.581 29.8047 31.0495 29.6589 31.2744 29.2578L34.8726 23.2057C35.0975 22.8047 35.0037 22.349 34.6477 22.0938L30.8808 19.2135ZM17.5 24.0625C13.7894 24.0625 10.7534 21.1094 10.7534 17.5C10.7534 13.8906 13.7894 10.9375 17.5 10.9375C21.2106 10.9375 24.2466 13.8906 24.2466 17.5C24.2466 21.1094 21.2106 24.0625 17.5 24.0625Z" fill="black"/>
</svg>
