<svg width="45" height="35" viewBox="0 0 45 35" fill="none" xmlns="http://www.w3.org/2000/svg">
<path d="M13.5 17.5C17.8523 17.5 21.375 13.5859 21.375 8.75C21.375 3.91406 17.8523 0 13.5 0C9.14766 0 5.625 3.91406 5.625 8.75C5.625 13.5859 9.14766 17.5 13.5 17.5ZM18.9 20H18.3164C16.8539 20.7812 15.2297 21.25 13.5 21.25C11.7703 21.25 10.1531 20.7812 8.68359 20H8.1C3.62812 20 0 24.0312 0 29V31.25C0 33.3203 1.51172 35 3.375 35H23.625C25.4883 35 27 33.3203 27 31.25V29C27 24.0312 23.3719 20 18.9 20ZM33.75 17.5C37.4766 17.5 40.5 14.1406 40.5 10C40.5 5.85938 37.4766 2.5 33.75 2.5C30.0234 2.5 27 5.85938 27 10C27 14.1406 30.0234 17.5 33.75 17.5ZM37.125 20H36.8578C35.8805 20.375 34.8469 20.625 33.75 20.625C32.6531 20.625 31.6195 20.375 30.6422 20H30.375C28.9406 20 27.6187 20.4609 26.4586 21.2031C28.1742 23.2578 29.25 25.9844 29.25 29V32C29.25 32.1719 29.2148 32.3359 29.2078 32.5H41.625C43.4883 32.5 45 30.8203 45 28.75C45 23.9141 41.4773 20 37.125 20Z" fill="black"/>
</svg>
