<svg width="45" height="45" viewBox="0 0 45 45" fill="none" xmlns="http://www.w3.org/2000/svg">
<path fill-rule="evenodd" clip-rule="evenodd" d="M45 22.4992C44.9997 19.0182 44.1919 15.5848 42.64 12.469C41.0881 9.35318 38.8345 6.63992 36.0564 4.54263C33.2784 2.44534 30.0516 1.02122 26.6299 0.382289C23.2083 -0.256642 19.685 -0.0929621 16.3373 0.860455C12.9896 1.81387 9.90878 3.53103 7.3371 5.87685C4.76543 8.22267 2.77306 11.1332 1.51672 14.3795C0.260368 17.6258 -0.225696 21.1193 0.0967548 24.5852C0.419205 28.0512 1.54138 31.3951 3.375 34.3539C5.39171 37.6109 8.20723 40.2986 11.5544 42.1618C14.9015 44.025 18.6692 45.002 22.5 45C28.4674 45 34.1903 42.6294 38.4099 38.4097C42.6295 34.1899 45 28.4668 45 22.4992ZM22.5 40.1784C24.222 40.1809 25.9351 39.9319 27.585 39.4391C26.1932 33.1228 21.9343 27.9251 14.6925 27.9251C11.6518 27.9251 9.02893 28.9698 6.82715 30.6895C8.32349 33.552 10.5755 35.9499 13.3385 37.6227C16.1015 39.2956 19.2701 40.1795 22.5 40.1784ZM30.8379 38.0922C34.0841 36.3504 36.7081 33.642 38.3464 30.3423C36.5921 29.2527 34.5868 28.633 32.5236 28.5429C30.4604 28.4529 28.4087 28.8954 26.5661 29.828C26.7171 29.9952 26.8682 30.1655 27.0129 30.3423C28.8868 32.586 30.1307 35.2828 30.8346 38.0955L30.8379 38.0922ZM15.2004 10.4226C17.1142 10.4226 18.9496 11.1829 20.3029 12.5363C21.6562 13.8896 22.4164 15.7251 22.4164 17.639C22.4164 19.5529 21.6562 21.3884 20.3029 22.7417C18.9496 24.095 17.1142 24.8553 15.2004 24.8553C13.2865 24.8553 11.4511 24.095 10.0978 22.7417C8.74455 21.3884 7.98429 19.5529 7.98429 17.639C7.98429 15.7251 8.74455 13.8896 10.0978 12.5363C11.4511 11.1829 13.2865 10.4226 15.2004 10.4226ZM37.9221 19.7348C37.9221 18.1491 37.2923 16.6284 36.1711 15.5071C35.0499 14.3859 33.5292 13.756 31.9436 13.756C30.358 13.756 28.8373 14.3859 27.7161 15.5071C26.5949 16.6284 25.965 18.1491 25.965 19.7348C25.965 21.3204 26.5949 22.8412 27.7161 23.9624C28.8373 25.0837 30.358 25.7136 31.9436 25.7136C33.5292 25.7136 35.0499 25.0837 36.1711 23.9624C37.2923 22.8412 37.9221 21.3204 37.9221 19.7348Z" fill="black"/>
</svg>
